<svg xmlns="http://www.w3.org/2000/svg" xmlns:xlink="http://www.w3.org/1999/xlink" width="500" zoomAndPan="magnify" viewBox="0 0 375 225" height="300" preserveAspectRatio="xMidYMid meet" version="1.0"><defs><g/><clipPath id="5eae194078"><path d="M 68 76.714844 L 139.769531 76.714844 L 139.769531 148.308594 L 68 148.308594 Z M 68 76.714844 " clip-rule="nonzero"/></clipPath><clipPath id="6197cc6cef"><path d="M 85 85 L 139.769531 85 L 139.769531 148.308594 L 85 148.308594 Z M 85 85 " clip-rule="nonzero"/></clipPath><clipPath id="44fed2de6a"><path d="M 54.914062 144 L 114 144 L 114 148.308594 L 54.914062 148.308594 Z M 54.914062 144 " clip-rule="nonzero"/></clipPath><clipPath id="4767d7fc4c"><path d="M 112 76.714844 L 121 76.714844 L 121 82 L 112 82 Z M 112 76.714844 " clip-rule="nonzero"/></clipPath><clipPath id="82429099a2"><path d="M 142 101 L 159 101 L 159 131 L 142 131 Z M 142 101 " clip-rule="nonzero"/></clipPath><clipPath id="dcfc52c248"><path d="M 142.6875 101.324219 L 158.59375 101.65625 L 157.984375 130.820312 L 142.078125 130.488281 Z M 142.6875 101.324219 " clip-rule="nonzero"/></clipPath><clipPath id="3b508d6a23"><path d="M 142.6875 101.324219 L 158.59375 101.65625 L 157.984375 130.820312 L 142.078125 130.488281 Z M 142.6875 101.324219 " clip-rule="nonzero"/></clipPath><clipPath id="73028b9e7f"><path d="M 283.890625 109.027344 L 303.117188 109.027344 L 303.117188 128.253906 L 283.890625 128.253906 Z M 283.890625 109.027344 " clip-rule="nonzero"/></clipPath></defs><path fill="#336aea" d="M 118.046875 113.042969 L 134.101562 99.105469 L 120.152344 115.15625 Z M 118.046875 113.042969 " fill-opacity="1" fill-rule="nonzero"/><g clip-path="url(#5eae194078)"><path stroke-linecap="butt" transform="matrix(0.0271019, 0, 0, -0.0271434, 45.020429, 184.67262)" fill="none" stroke-linejoin="miter" d="M 2419.945943 2286.781517 L 2569.987529 2436.449499 " stroke="#333333" stroke-width="110" stroke-opacity="1" stroke-miterlimit="10"/></g><path fill="#336aea" d="M 117.234375 118.222656 C 116.203125 118.441406 115.191406 117.777344 114.972656 116.742188 C 114.757812 115.710938 115.417969 114.695312 116.453125 114.476562 C 117.484375 114.261719 118.496094 114.925781 118.710938 115.957031 C 118.929688 116.992188 118.265625 118.007812 117.234375 118.222656 Z M 115.917969 111.921875 C 113.476562 112.4375 111.910156 114.832031 112.421875 117.277344 C 112.933594 119.722656 115.328125 121.289062 117.769531 120.777344 C 120.210938 120.265625 121.777344 117.867188 121.265625 115.421875 C 120.753906 112.976562 118.359375 111.410156 115.917969 111.921875 " fill-opacity="1" fill-rule="nonzero"/><g clip-path="url(#6197cc6cef)"><path fill="#336aea" d="M 113.820312 85.824219 C 105.53125 86.605469 98.035156 90.574219 92.722656 97 C 87.410156 103.421875 84.914062 111.535156 85.691406 119.839844 C 87.011719 133.902344 97.496094 144.933594 110.671875 147.558594 C 113.558594 148.132812 116.578125 148.304688 119.65625 148.015625 C 121.75 147.816406 123.785156 147.421875 125.757812 146.828125 C 125.449219 146.332031 125.210938 145.789062 125.050781 145.210938 C 122.988281 145.648438 120.867188 145.855469 118.90625 145.773438 C 103.984375 145.132812 91.167969 134.351562 89.773438 119.457031 C 89.09375 112.242188 91.265625 105.199219 95.878906 99.617188 C 100.492188 94.035156 107.003906 90.589844 114.207031 89.910156 C 122.738281 89.109375 130.648438 91.5625 136.363281 97.976562 L 139.777344 95.777344 C 133.195312 88.394531 123.644531 84.902344 113.820312 85.824219 " fill-opacity="1" fill-rule="nonzero"/></g><path fill="#336aea" d="M 110.480469 88.410156 L 81.226562 87.191406 L 114.671875 85.792969 Z M 110.480469 88.410156 " fill-opacity="1" fill-rule="nonzero"/><path fill="#336aea" d="M 88.628906 118.527344 L 63.351562 117.304688 L 88.628906 116.082031 Z M 88.628906 118.527344 " fill-opacity="1" fill-rule="nonzero"/><g clip-path="url(#44fed2de6a)"><path fill="#336aea" d="M 113.226562 148.058594 L 54.90625 146.210938 L 109.164062 144.496094 Z M 113.226562 148.058594 " fill-opacity="1" fill-rule="nonzero"/></g><path fill="#336aea" d="M 92.121094 133.332031 L 67.355469 132.429688 L 92.121094 131.53125 Z M 92.121094 133.332031 " fill-opacity="1" fill-rule="nonzero"/><path fill="#336aea" d="M 91.519531 103.113281 L 75.683594 102.214844 L 91.519531 101.316406 Z M 91.519531 103.113281 " fill-opacity="1" fill-rule="nonzero"/><path fill="#336aea" d="M 88.960938 110.769531 L 73.125 109.871094 L 88.960938 108.972656 Z M 88.960938 110.769531 " fill-opacity="1" fill-rule="nonzero"/><path fill="#336aea" d="M 89.238281 125.785156 L 64.769531 124.886719 L 89.238281 123.988281 Z M 89.238281 125.785156 " fill-opacity="1" fill-rule="nonzero"/><path fill="#336aea" d="M 97.550781 140.707031 L 62.648438 139.808594 L 97.550781 138.910156 Z M 97.550781 140.707031 " fill-opacity="1" fill-rule="nonzero"/><path fill="#336aea" d="M 97.550781 95.539062 L 81.714844 94.640625 L 97.550781 93.742188 Z M 97.550781 95.539062 " fill-opacity="1" fill-rule="nonzero"/><g clip-path="url(#4767d7fc4c)"><path fill="#336aea" d="M 120.152344 81.074219 L 113.3125 81.074219 C 112.984375 81.074219 112.71875 80.808594 112.71875 80.480469 L 112.71875 77.328125 C 112.71875 77 112.984375 76.730469 113.3125 76.730469 L 120.152344 76.730469 C 120.480469 76.730469 120.746094 77 120.746094 77.328125 L 120.746094 80.480469 C 120.746094 80.808594 120.480469 81.074219 120.152344 81.074219 " fill-opacity="1" fill-rule="nonzero"/></g><path fill="#336aea" d="M 118.738281 85.054688 L 114.726562 85.054688 L 114.726562 81.664062 L 118.738281 81.664062 L 118.738281 85.054688 " fill-opacity="1" fill-rule="nonzero"/><path fill="#336aea" d="M 106.230469 97.605469 L 104.644531 94.851562 L 103.703125 95.394531 L 105.292969 98.152344 C 105.601562 97.960938 105.914062 97.78125 106.230469 97.605469 " fill-opacity="1" fill-rule="nonzero"/><path fill="#336aea" d="M 116.734375 94.929688 C 116.917969 94.929688 117.097656 94.941406 117.28125 94.945312 L 117.28125 91.753906 L 116.195312 91.75 L 116.195312 94.945312 C 116.375 94.9375 116.554688 94.929688 116.734375 94.929688 " fill-opacity="1" fill-rule="nonzero"/><path fill="#336aea" d="M 98 105.457031 L 95.246094 103.863281 L 94.703125 104.804688 L 97.457031 106.394531 C 97.628906 106.078125 97.808594 105.765625 98 105.457031 " fill-opacity="1" fill-rule="nonzero"/><path fill="#336aea" d="M 128.183594 98.152344 L 129.773438 95.398438 L 128.835938 94.855469 L 127.246094 97.609375 C 127.5625 97.785156 127.875 97.964844 128.183594 98.152344 " fill-opacity="1" fill-rule="nonzero"/><path fill="#336aea" d="M 94.78125 116.921875 C 94.78125 116.738281 94.789062 116.554688 94.792969 116.375 L 91.605469 116.375 L 91.605469 117.460938 L 94.792969 117.460938 C 94.789062 117.28125 94.78125 117.101562 94.78125 116.921875 " fill-opacity="1" fill-rule="nonzero"/><path fill="#336aea" d="M 97.453125 127.441406 L 94.699219 129.03125 L 95.242188 129.972656 L 97.996094 128.378906 C 97.804688 128.070312 97.625 127.757812 97.453125 127.441406 " fill-opacity="1" fill-rule="nonzero"/><path fill="#336aea" d="M 116.734375 138.910156 C 116.550781 138.910156 116.371094 138.898438 116.191406 138.894531 L 116.191406 142.089844 L 117.273438 142.089844 L 117.273438 138.898438 C 117.09375 138.898438 116.917969 138.910156 116.734375 138.910156 " fill-opacity="1" fill-rule="nonzero"/><path fill="#336aea" d="M 105.289062 135.6875 L 103.699219 138.445312 L 104.636719 138.988281 L 106.226562 136.230469 C 105.910156 136.058594 105.597656 135.875 105.289062 135.6875 " fill-opacity="1" fill-rule="nonzero"/><g fill="#336aea" fill-opacity="1"><g transform="translate(219.386781, 140.783716)"><g><path d="M 2.671875 0.0625 C 2.222656 0.0625 1.816406 -0.0351562 1.453125 -0.234375 C 1.085938 -0.429688 0.800781 -0.703125 0.59375 -1.046875 C 0.382812 -1.398438 0.28125 -1.789062 0.28125 -2.21875 C 0.28125 -2.65625 0.382812 -3.046875 0.59375 -3.390625 C 0.800781 -3.742188 1.085938 -4.019531 1.453125 -4.21875 C 1.816406 -4.414062 2.222656 -4.515625 2.671875 -4.515625 C 3.128906 -4.515625 3.539062 -4.414062 3.90625 -4.21875 C 4.269531 -4.019531 4.554688 -3.742188 4.765625 -3.390625 C 4.972656 -3.046875 5.078125 -2.65625 5.078125 -2.21875 C 5.078125 -1.789062 4.972656 -1.398438 4.765625 -1.046875 C 4.554688 -0.703125 4.269531 -0.429688 3.90625 -0.234375 C 3.539062 -0.0351562 3.128906 0.0625 2.671875 0.0625 Z M 2.671875 -0.65625 C 2.972656 -0.65625 3.238281 -0.722656 3.46875 -0.859375 C 3.707031 -0.992188 3.894531 -1.179688 4.03125 -1.421875 C 4.164062 -1.660156 4.234375 -1.925781 4.234375 -2.21875 C 4.234375 -2.519531 4.164062 -2.789062 4.03125 -3.03125 C 3.894531 -3.269531 3.707031 -3.457031 3.46875 -3.59375 C 3.238281 -3.726562 2.972656 -3.796875 2.671875 -3.796875 C 2.378906 -3.796875 2.113281 -3.726562 1.875 -3.59375 C 1.632812 -3.457031 1.445312 -3.269531 1.3125 -3.03125 C 1.175781 -2.789062 1.109375 -2.519531 1.109375 -2.21875 C 1.109375 -1.925781 1.175781 -1.660156 1.3125 -1.421875 C 1.445312 -1.179688 1.632812 -0.992188 1.875 -0.859375 C 2.113281 -0.722656 2.378906 -0.65625 2.671875 -0.65625 Z M 2.671875 -0.65625 "/></g></g></g><g fill="#336aea" fill-opacity="1"><g transform="translate(228.737587, 140.783716)"><g><path d="M 1.5 -3.75 L 0.03125 -3.75 L 0.03125 -4.453125 L 3.796875 -4.453125 L 3.796875 -3.75 L 2.328125 -3.75 L 2.328125 0 L 1.5 0 Z M 1.5 -3.75 "/></g></g></g><g fill="#336aea" fill-opacity="1"><g transform="translate(236.563799, 140.783716)"><g><path d="M 1.984375 0.0625 C 1.640625 0.0625 1.304688 0.015625 0.984375 -0.078125 C 0.660156 -0.179688 0.40625 -0.3125 0.21875 -0.46875 L 0.515625 -1.109375 C 0.691406 -0.960938 0.910156 -0.84375 1.171875 -0.75 C 1.441406 -0.664062 1.710938 -0.625 1.984375 -0.625 C 2.304688 -0.625 2.550781 -0.675781 2.71875 -0.78125 C 2.882812 -0.882812 2.96875 -1.023438 2.96875 -1.203125 C 2.96875 -1.328125 2.921875 -1.429688 2.828125 -1.515625 C 2.734375 -1.597656 2.613281 -1.660156 2.46875 -1.703125 C 2.332031 -1.753906 2.144531 -1.8125 1.90625 -1.875 C 1.570312 -1.945312 1.296875 -2.023438 1.078125 -2.109375 C 0.867188 -2.191406 0.6875 -2.316406 0.53125 -2.484375 C 0.382812 -2.660156 0.3125 -2.894531 0.3125 -3.1875 C 0.3125 -3.4375 0.378906 -3.660156 0.515625 -3.859375 C 0.648438 -4.054688 0.851562 -4.210938 1.125 -4.328125 C 1.394531 -4.453125 1.722656 -4.515625 2.109375 -4.515625 C 2.378906 -4.515625 2.644531 -4.476562 2.90625 -4.40625 C 3.175781 -4.34375 3.40625 -4.25 3.59375 -4.125 L 3.328125 -3.484375 C 3.140625 -3.597656 2.9375 -3.679688 2.71875 -3.734375 C 2.507812 -3.796875 2.304688 -3.828125 2.109375 -3.828125 C 1.773438 -3.828125 1.53125 -3.769531 1.375 -3.65625 C 1.21875 -3.550781 1.140625 -3.40625 1.140625 -3.21875 C 1.140625 -3.09375 1.179688 -2.988281 1.265625 -2.90625 C 1.359375 -2.832031 1.472656 -2.769531 1.609375 -2.71875 C 1.753906 -2.675781 1.945312 -2.625 2.1875 -2.5625 C 2.519531 -2.488281 2.789062 -2.410156 3 -2.328125 C 3.21875 -2.242188 3.398438 -2.113281 3.546875 -1.9375 C 3.703125 -1.769531 3.78125 -1.546875 3.78125 -1.265625 C 3.78125 -1.015625 3.710938 -0.789062 3.578125 -0.59375 C 3.441406 -0.394531 3.238281 -0.234375 2.96875 -0.109375 C 2.695312 0.00390625 2.367188 0.0625 1.984375 0.0625 Z M 1.984375 0.0625 "/></g></g></g><g clip-path="url(#82429099a2)"><g clip-path="url(#dcfc52c248)"><g clip-path="url(#3b508d6a23)"><path fill="#336aea" d="M 151.328125 126.273438 C 150.929688 126.488281 150.535156 126.707031 150.132812 126.910156 C 149.929688 127.011719 149.773438 127.121094 149.804688 127.386719 C 149.816406 127.488281 149.757812 127.578125 149.742188 127.679688 C 149.726562 127.792969 149.585938 127.746094 149.503906 127.78125 C 149.4375 127.808594 149.421875 127.738281 149.410156 127.683594 C 149.402344 127.644531 149.386719 127.605469 149.378906 127.5625 C 149.335938 127.292969 149.328125 127.285156 149.082031 127.410156 C 148.839844 127.535156 148.605469 127.667969 148.367188 127.800781 C 148.320312 127.746094 148.390625 127.691406 148.347656 127.640625 C 148.335938 127.625 148.3125 127.636719 148.292969 127.648438 C 147.632812 128.023438 146.960938 128.371094 146.324219 128.789062 C 145.757812 129.15625 145.1875 129.523438 144.636719 129.921875 C 144.433594 130.070312 144.238281 130.234375 144.054688 130.410156 C 143.949219 130.511719 143.917969 130.410156 143.871094 130.359375 C 143.785156 130.277344 143.882812 130.25 143.925781 130.21875 C 144.1875 130.019531 144.453125 129.824219 144.714844 129.628906 C 144.707031 129.613281 144.699219 129.597656 144.691406 129.582031 C 144.582031 129.644531 144.46875 129.707031 144.363281 129.777344 C 144.261719 129.847656 144.160156 129.917969 144.070312 130 C 143.972656 130.089844 143.921875 130.03125 143.851562 129.960938 C 143.761719 129.867188 143.859375 129.835938 143.902344 129.796875 C 144.019531 129.691406 144.148438 129.597656 144.273438 129.496094 C 144.316406 129.460938 144.375 129.433594 144.363281 129.339844 C 144.140625 129.457031 143.964844 129.621094 143.777344 129.761719 C 143.6875 129.828125 143.605469 129.964844 143.46875 129.828125 C 143.457031 129.816406 143.402344 129.835938 143.371094 129.851562 C 143.296875 129.894531 143.222656 129.902344 143.167969 129.832031 C 143.121094 129.765625 142.992188 129.71875 143.085938 129.597656 C 143.117188 129.558594 143.105469 129.507812 143.070312 129.484375 C 142.925781 129.386719 142.824219 129.230469 142.636719 129.195312 C 142.488281 129.164062 142.296875 129.152344 142.320312 128.910156 C 142.324219 128.871094 142.292969 128.886719 142.269531 128.890625 C 142.222656 128.898438 142.128906 128.929688 142.136719 128.875 C 142.152344 128.792969 142.117188 128.703125 142.167969 128.625 C 142.351562 128.339844 142.558594 128.078125 142.8125 127.859375 C 142.96875 127.726562 143.136719 127.601562 143.304688 127.484375 C 144.214844 126.839844 145.179688 126.28125 146.136719 125.710938 C 146.726562 125.359375 147.339844 125.042969 147.945312 124.714844 C 148.035156 124.667969 148.085938 124.601562 148.105469 124.5 C 148.226562 123.855469 148.378906 123.214844 148.464844 122.5625 C 148.550781 121.917969 148.753906 121.304688 148.890625 120.675781 C 149.03125 120.019531 149.203125 119.363281 149.316406 118.699219 C 149.359375 118.453125 149.414062 118.210938 149.425781 117.949219 C 149.359375 118.105469 149.289062 118.261719 149.21875 118.417969 C 149.183594 118.222656 149.253906 118.042969 149.296875 117.863281 C 149.484375 117.097656 149.714844 116.34375 149.933594 115.585938 C 150.375 114.0625 150.835938 112.542969 151.320312 111.03125 C 151.453125 110.613281 151.53125 110.171875 151.746094 109.78125 C 151.707031 109.988281 151.707031 110.207031 151.628906 110.40625 C 151.78125 110.109375 151.914062 109.804688 151.898438 109.453125 C 151.863281 109.523438 151.824219 109.597656 151.785156 109.667969 C 151.847656 109.308594 152.007812 108.980469 152.085938 108.625 C 152.097656 108.574219 152.109375 108.523438 152.136719 108.421875 C 151.867188 108.75 151.625 109.035156 151.402344 109.332031 C 151.03125 109.820312 150.625 110.273438 150.242188 110.753906 C 149.667969 111.472656 149.039062 112.144531 148.445312 112.84375 C 148.355469 112.953125 148.285156 113.078125 148.195312 113.1875 C 148.097656 113.300781 148.0625 113.179688 148.011719 113.15625 C 147.933594 113.121094 147.988281 113.070312 148.023438 113.03125 C 148.34375 112.667969 148.664062 112.300781 148.984375 111.9375 C 149.035156 111.882812 149.089844 111.828125 149.101562 111.746094 C 148.761719 112.074219 148.425781 112.40625 148.128906 112.773438 C 148.082031 112.828125 148.050781 112.910156 147.949219 112.828125 C 147.863281 112.757812 147.835938 112.707031 147.914062 112.617188 C 148.101562 112.402344 148.285156 112.183594 148.464844 111.964844 C 148.515625 111.902344 148.582031 111.847656 148.574219 111.714844 C 148.304688 112.03125 148.027344 112.296875 147.796875 112.601562 C 147.730469 112.691406 147.671875 112.820312 147.519531 112.726562 C 147.5 112.714844 147.457031 112.75 147.425781 112.761719 C 147.28125 112.835938 147.109375 112.734375 147.113281 112.574219 C 147.117188 112.527344 147.117188 112.480469 147.078125 112.464844 C 146.921875 112.394531 146.800781 112.253906 146.613281 112.25 C 146.453125 112.246094 146.277344 112.253906 146.25 112.023438 C 146.242188 111.980469 146.21875 112.007812 146.203125 112.011719 C 146.15625 112.023438 146.097656 112.085938 146.0625 112.015625 C 146.035156 111.953125 146.007812 111.859375 146.03125 111.800781 C 146.128906 111.550781 146.222656 111.300781 146.375 111.074219 C 146.59375 110.753906 146.863281 110.476562 147.117188 110.191406 C 148.203125 108.964844 149.230469 107.683594 150.261719 106.410156 C 151.046875 105.445312 151.816406 104.460938 152.613281 103.5 C 153.0625 102.957031 153.550781 102.445312 154.199219 102.132812 C 155.308594 101.601562 156.527344 102.402344 156.507812 103.65625 C 156.496094 104.351562 156.28125 105 156.09375 105.652344 C 155.878906 106.394531 155.632812 107.125 155.398438 107.855469 C 155.359375 107.976562 155.304688 108.089844 155.25 108.203125 C 155.074219 108.574219 155.039062 108.988281 154.898438 109.375 C 154.703125 109.90625 154.542969 110.457031 154.414062 111.007812 C 154.320312 111.394531 154.238281 111.785156 154.089844 112.152344 C 153.984375 112.417969 153.902344 112.691406 153.839844 112.96875 C 153.765625 113.285156 153.601562 113.566406 153.507812 113.871094 C 153 115.519531 152.496094 117.167969 152.011719 118.824219 C 151.6875 119.925781 151.394531 121.03125 151.105469 122.144531 C 151.027344 122.453125 150.972656 122.769531 150.894531 123.132812 C 151.082031 123.007812 151.269531 123.011719 151.425781 122.929688 C 152.078125 122.585938 152.753906 122.300781 153.398438 121.945312 C 154.03125 121.597656 154.644531 121.207031 155.324219 120.945312 C 155.578125 120.84375 155.832031 120.703125 156.101562 120.671875 C 156.367188 120.636719 156.636719 120.597656 156.90625 120.585938 C 157.023438 120.582031 157.140625 120.570312 157.257812 120.554688 C 157.335938 120.542969 157.4375 120.5 157.476562 120.628906 C 157.480469 120.644531 157.515625 120.65625 157.535156 120.65625 C 157.707031 120.636719 157.867188 120.703125 158.03125 120.738281 C 158.082031 120.75 158.199219 120.746094 158.167969 120.796875 C 158.121094 120.878906 158.1875 121.03125 158.042969 121.054688 C 157.824219 121.085938 157.613281 121.191406 157.386719 121.160156 C 157.164062 121.125 156.976562 121.226562 156.78125 121.292969 C 156.273438 121.460938 155.78125 121.667969 155.328125 121.957031 C 155.5625 121.851562 155.796875 121.742188 156.035156 121.648438 C 156.308594 121.535156 156.589844 121.449219 156.871094 121.375 C 156.976562 121.347656 157.078125 121.34375 157.1875 121.390625 C 157.152344 121.441406 157.070312 121.496094 157.15625 121.550781 C 157.261719 121.617188 157.199219 121.644531 157.140625 121.683594 C 157.0625 121.738281 156.941406 121.753906 156.976562 121.910156 C 156.988281 121.953125 156.898438 121.96875 156.851562 121.984375 C 156.050781 122.273438 155.324219 122.707031 154.605469 123.164062 C 154.582031 123.179688 154.5625 123.199219 154.515625 123.234375 C 154.613281 123.242188 154.660156 123.191406 154.71875 123.175781 C 154.824219 123.140625 154.921875 123.089844 155.042969 123.191406 C 155.117188 123.257812 155.246094 123.273438 155.367188 123.195312 C 155.640625 123.015625 155.96875 122.996094 156.277344 122.917969 C 156.316406 122.910156 156.355469 122.902344 156.394531 122.886719 C 156.652344 122.769531 156.941406 122.75 157.203125 122.652344 C 157.242188 122.636719 157.285156 122.636719 157.324219 122.640625 C 157.425781 122.648438 157.4375 122.746094 157.457031 122.8125 C 157.472656 122.875 157.390625 122.859375 157.351562 122.871094 C 157.074219 122.964844 156.785156 123.027344 156.523438 123.15625 C 156.175781 123.328125 155.839844 123.519531 155.5 123.703125 C 155.238281 123.84375 155.03125 124.058594 154.800781 124.238281 C 154.753906 124.269531 154.71875 124.316406 154.675781 124.363281 C 154.769531 124.40625 154.847656 124.308594 154.9375 124.371094 C 154.800781 124.507812 154.644531 124.609375 154.480469 124.699219 C 154.070312 124.929688 153.648438 125.136719 153.226562 125.34375 C 152.871094 125.519531 152.515625 125.710938 152.160156 125.890625 C 151.898438 126.019531 151.648438 126.175781 151.363281 126.253906 C 151.4375 126.195312 151.484375 126.105469 151.570312 126.050781 C 151.472656 126.085938 151.359375 126.078125 151.285156 126.160156 C 151.257812 126.1875 151.199219 126.207031 151.21875 126.25 C 151.234375 126.289062 151.289062 126.273438 151.328125 126.273438 Z M 150.242188 109.753906 C 150.3125 109.730469 150.351562 109.664062 150.398438 109.613281 C 150.894531 109.0625 151.332031 108.460938 151.8125 107.894531 C 151.921875 107.769531 152.011719 107.621094 152.117188 107.46875 C 152.035156 107.484375 152.011719 107.542969 151.976562 107.585938 C 151.738281 107.875 151.492188 108.15625 151.265625 108.457031 C 150.933594 108.898438 150.550781 109.292969 150.246094 109.757812 C 150.078125 109.902344 149.941406 110.070312 149.839844 110.265625 C 149.984375 110.105469 150.15625 109.964844 150.242188 109.753906 Z M 150.1875 119.234375 C 150.054688 119.476562 150.003906 119.75 149.875 119.992188 C 149.835938 120.0625 149.867188 120.234375 149.695312 120.140625 C 149.6875 120.136719 149.667969 120.148438 149.667969 120.15625 C 149.617188 120.3125 149.464844 120.402344 149.429688 120.566406 C 149.328125 121.035156 149.152344 121.480469 149.019531 121.9375 C 148.859375 122.5 148.644531 123.050781 148.558594 123.636719 C 148.535156 123.796875 148.496094 123.953125 148.457031 124.109375 C 148.449219 124.152344 148.449219 124.195312 148.402344 124.238281 C 148.351562 124.28125 148.320312 124.410156 148.347656 124.453125 C 148.390625 124.523438 148.46875 124.441406 148.53125 124.410156 C 148.65625 124.347656 148.773438 124.253906 148.90625 124.226562 C 149.105469 124.183594 149.148438 124.054688 149.175781 123.882812 C 149.355469 122.804688 149.589844 121.738281 149.828125 120.671875 C 149.9375 120.191406 150.066406 119.714844 150.1875 119.234375 Z M 149.875 110.835938 C 150.28125 110.519531 150.550781 110.078125 150.871094 109.679688 C 150.480469 110.007812 150.175781 110.421875 149.875 110.835938 Z M 146.410156 128.003906 C 146.039062 128.167969 145.710938 128.40625 145.386719 128.644531 C 145.742188 128.457031 146.097656 128.261719 146.410156 128.003906 Z M 149.832031 123.679688 C 149.851562 123.683594 149.871094 123.6875 149.886719 123.691406 C 149.984375 123.191406 150.082031 122.6875 150.179688 122.1875 C 150.167969 122.183594 150.160156 122.183594 150.148438 122.179688 C 150.042969 122.679688 149.9375 123.179688 149.832031 123.679688 Z M 145.089844 129.320312 C 145.339844 129.277344 145.476562 129.121094 145.636719 129.015625 C 145.644531 129.011719 145.644531 128.980469 145.636719 128.972656 C 145.621094 128.957031 145.597656 128.9375 145.578125 128.957031 C 145.4375 129.082031 145.238281 129.117188 145.089844 129.320312 Z M 151.554688 110.625 C 151.410156 110.835938 151.433594 111.054688 151.425781 111.273438 C 151.527344 111.074219 151.554688 110.863281 151.554688 110.625 Z M 148.796875 111.496094 C 149.011719 111.347656 149.128906 111.113281 149.285156 110.914062 C 149.105469 111.09375 148.917969 111.265625 148.796875 111.496094 Z M 150.632812 113.867188 C 150.640625 113.867188 150.644531 113.871094 150.648438 113.871094 C 150.707031 113.683594 150.765625 113.5 150.824219 113.3125 C 150.832031 113.285156 150.855469 113.242188 150.789062 113.238281 C 150.734375 113.234375 150.75 113.269531 150.746094 113.292969 C 150.710938 113.484375 150.671875 113.675781 150.632812 113.867188 Z M 147.164062 127.554688 C 146.910156 127.652344 146.738281 127.785156 146.566406 127.914062 C 146.765625 127.832031 146.960938 127.738281 147.164062 127.554688 Z M 144.894531 128.976562 C 144.738281 129.054688 144.578125 129.125 144.472656 129.273438 C 144.640625 129.214844 144.753906 129.074219 144.894531 128.976562 Z M 152.351562 107.128906 C 152.488281 107.050781 152.578125 106.9375 152.628906 106.785156 C 152.535156 106.902344 152.441406 107.015625 152.351562 107.128906 Z M 152.351562 107.128906 " fill-opacity="1" fill-rule="nonzero"/></g></g></g><g fill="#333333" fill-opacity="1"><g transform="translate(139.247425, 125.62542)"><g/></g></g><g fill="#333333" fill-opacity="1"><g transform="translate(145.414394, 125.62542)"><g/></g></g><g fill="#333333" fill-opacity="1"><g transform="translate(151.581363, 125.62542)"><g/></g></g><g fill="#333333" fill-opacity="1"><g transform="translate(157.753877, 125.62542)"><g><path d="M 14.765625 -14.25 L 14.765625 0 L 12.046875 0 L 4.953125 -8.65625 L 4.953125 0 L 1.6875 0 L 1.6875 -14.25 L 4.421875 -14.25 L 11.5 -5.59375 L 11.5 -14.25 Z M 14.765625 -14.25 "/></g></g></g><g fill="#333333" fill-opacity="1"><g transform="translate(174.605953, 125.62542)"><g><path d="M 12.71875 -2.640625 L 12.71875 0 L 1.6875 0 L 1.6875 -14.25 L 12.453125 -14.25 L 12.453125 -11.609375 L 4.96875 -11.609375 L 4.96875 -8.515625 L 11.578125 -8.515625 L 11.578125 -5.9375 L 4.96875 -5.9375 L 4.96875 -2.640625 Z M 12.71875 -2.640625 "/></g></g></g><g fill="#333333" fill-opacity="1"><g transform="translate(188.669729, 125.62542)"><g/></g></g><g fill="#333333" fill-opacity="1"><g transform="translate(194.836699, 125.62542)"><g><path d="M 4.640625 -11.5625 L 0.078125 -11.5625 L 0.078125 -14.25 L 12.5 -14.25 L 12.5 -11.5625 L 7.9375 -11.5625 L 7.9375 0 L 4.640625 0 Z M 4.640625 -11.5625 "/></g></g></g><g fill="#333333" fill-opacity="1"><g transform="translate(207.82179, 125.62542)"><g><path d="M 1.6875 -14.25 L 4.984375 -14.25 L 4.984375 0 L 1.6875 0 Z M 1.6875 -14.25 "/></g></g></g><g fill="#333333" fill-opacity="1"><g transform="translate(214.90463, 125.62542)"><g><path d="M 14.65625 0 L 14.640625 -8.546875 L 10.4375 -1.5 L 8.953125 -1.5 L 4.78125 -8.375 L 4.78125 0 L 1.6875 0 L 1.6875 -14.25 L 4.421875 -14.25 L 9.75 -5.390625 L 15 -14.25 L 17.71875 -14.25 L 17.75 0 Z M 14.65625 0 "/></g></g></g><g fill="#333333" fill-opacity="1"><g transform="translate(234.748538, 125.62542)"><g><path d="M 12.71875 -2.640625 L 12.71875 0 L 1.6875 0 L 1.6875 -14.25 L 12.453125 -14.25 L 12.453125 -11.609375 L 4.96875 -11.609375 L 4.96875 -8.515625 L 11.578125 -8.515625 L 11.578125 -5.9375 L 4.96875 -5.9375 L 4.96875 -2.640625 Z M 12.71875 -2.640625 "/></g></g></g><g fill="#333333" fill-opacity="1"><g transform="translate(248.81231, 125.62542)"><g/></g></g><g fill="#333333" fill-opacity="1"><g transform="translate(254.979276, 125.62542)"><g><path d="M 6.375 0.25 C 5.25 0.25 4.160156 0.0976562 3.109375 -0.203125 C 2.054688 -0.515625 1.207031 -0.914062 0.5625 -1.40625 L 1.6875 -3.890625 C 2.300781 -3.441406 3.023438 -3.082031 3.859375 -2.8125 C 4.703125 -2.539062 5.546875 -2.40625 6.390625 -2.40625 C 7.328125 -2.40625 8.019531 -2.539062 8.46875 -2.8125 C 8.914062 -3.09375 9.140625 -3.460938 9.140625 -3.921875 C 9.140625 -4.265625 9.003906 -4.546875 8.734375 -4.765625 C 8.472656 -4.992188 8.132812 -5.175781 7.71875 -5.3125 C 7.3125 -5.445312 6.753906 -5.597656 6.046875 -5.765625 C 4.960938 -6.023438 4.070312 -6.28125 3.375 -6.53125 C 2.6875 -6.789062 2.09375 -7.203125 1.59375 -7.765625 C 1.101562 -8.335938 0.859375 -9.101562 0.859375 -10.0625 C 0.859375 -10.882812 1.082031 -11.628906 1.53125 -12.296875 C 1.976562 -12.972656 2.648438 -13.507812 3.546875 -13.90625 C 4.453125 -14.300781 5.554688 -14.5 6.859375 -14.5 C 7.765625 -14.5 8.648438 -14.390625 9.515625 -14.171875 C 10.390625 -13.953125 11.15625 -13.640625 11.8125 -13.234375 L 10.796875 -10.734375 C 9.472656 -11.472656 8.15625 -11.84375 6.84375 -11.84375 C 5.914062 -11.84375 5.234375 -11.691406 4.796875 -11.390625 C 4.359375 -11.097656 4.140625 -10.707031 4.140625 -10.21875 C 4.140625 -9.726562 4.390625 -9.363281 4.890625 -9.125 C 5.398438 -8.894531 6.179688 -8.660156 7.234375 -8.421875 C 8.316406 -8.171875 9.203125 -7.914062 9.890625 -7.65625 C 10.585938 -7.394531 11.179688 -6.984375 11.671875 -6.421875 C 12.171875 -5.867188 12.421875 -5.117188 12.421875 -4.171875 C 12.421875 -3.359375 12.191406 -2.613281 11.734375 -1.9375 C 11.285156 -1.269531 10.601562 -0.738281 9.6875 -0.34375 C 8.78125 0.0507812 7.675781 0.25 6.375 0.25 Z M 6.375 0.25 "/></g></g></g><g fill="#333333" fill-opacity="1"><g transform="translate(268.371413, 125.62542)"><g><path d="M 14.765625 -14.25 L 14.765625 0 L 11.46875 0 L 11.46875 -5.84375 L 4.984375 -5.84375 L 4.984375 0 L 1.6875 0 L 1.6875 -14.25 L 4.984375 -14.25 L 4.984375 -8.625 L 11.46875 -8.625 L 11.46875 -14.25 Z M 14.765625 -14.25 "/></g></g></g><g fill="#333333" fill-opacity="1"><g transform="translate(285.229534, 125.62542)"><g/></g></g><g fill="#333333" fill-opacity="1"><g transform="translate(291.396503, 125.62542)"><g/></g></g><g fill="#333333" fill-opacity="1"><g transform="translate(297.563472, 125.62542)"><g/></g></g><g fill="#333333" fill-opacity="1"><g transform="translate(303.735986, 125.62542)"><g><path d="M 7.859375 -14.25 C 9.117188 -14.25 10.210938 -14.035156 11.140625 -13.609375 C 12.078125 -13.191406 12.796875 -12.597656 13.296875 -11.828125 C 13.796875 -11.054688 14.046875 -10.140625 14.046875 -9.078125 C 14.046875 -8.035156 13.796875 -7.125 13.296875 -6.34375 C 12.796875 -5.5625 12.078125 -4.960938 11.140625 -4.546875 C 10.210938 -4.128906 9.117188 -3.921875 7.859375 -3.921875 L 4.984375 -3.921875 L 4.984375 0 L 1.6875 0 L 1.6875 -14.25 Z M 7.671875 -6.609375 C 8.660156 -6.609375 9.410156 -6.820312 9.921875 -7.25 C 10.441406 -7.6875 10.703125 -8.296875 10.703125 -9.078125 C 10.703125 -9.878906 10.441406 -10.492188 9.921875 -10.921875 C 9.410156 -11.347656 8.660156 -11.5625 7.671875 -11.5625 L 4.984375 -11.5625 L 4.984375 -6.609375 Z M 7.671875 -6.609375 "/></g></g></g><path fill="#336aea" d="M 290.519531 123.738281 C 290.519531 123.851562 290.480469 123.945312 290.398438 124.027344 C 290.320312 124.105469 290.222656 124.148438 290.109375 124.148438 C 289.996094 124.148438 289.898438 124.105469 289.820312 124.027344 C 289.738281 123.945312 289.699219 123.851562 289.699219 123.738281 C 289.699219 123.625 289.738281 123.527344 289.820312 123.445312 C 289.898438 123.367188 289.996094 123.324219 290.109375 123.324219 C 290.222656 123.324219 290.320312 123.367188 290.398438 123.445312 C 290.480469 123.527344 290.519531 123.625 290.519531 123.738281 Z M 290.519531 123.738281 " fill-opacity="1" fill-rule="nonzero"/><path fill="#336aea" d="M 297.253906 123.738281 C 297.253906 123.851562 297.214844 123.945312 297.136719 124.027344 C 297.054688 124.105469 296.957031 124.148438 296.84375 124.148438 C 296.730469 124.148438 296.636719 124.105469 296.554688 124.027344 C 296.476562 123.945312 296.433594 123.851562 296.433594 123.738281 C 296.433594 123.625 296.476562 123.527344 296.554688 123.445312 C 296.636719 123.367188 296.730469 123.324219 296.84375 123.324219 C 296.957031 123.324219 297.054688 123.367188 297.136719 123.445312 C 297.214844 123.527344 297.253906 123.625 297.253906 123.738281 Z M 297.253906 123.738281 " fill-opacity="1" fill-rule="nonzero"/><g clip-path="url(#73028b9e7f)"><path fill="#336aea" d="M 293.503906 109.023438 C 288.195312 109.023438 283.890625 113.324219 283.890625 118.632812 C 283.890625 123.941406 288.195312 128.242188 293.503906 128.242188 C 298.808594 128.242188 303.113281 123.941406 303.113281 118.632812 C 303.113281 113.324219 298.808594 109.023438 293.503906 109.023438 Z M 290.875 122.328125 L 296.84375 122.328125 C 297.621094 122.328125 298.253906 122.960938 298.253906 123.738281 C 298.253906 124.511719 297.621094 125.144531 296.84375 125.144531 C 296.070312 125.144531 295.4375 124.511719 295.4375 123.738281 C 295.4375 123.59375 295.460938 123.457031 295.5 123.324219 L 291.453125 123.324219 C 291.496094 123.457031 291.515625 123.59375 291.515625 123.738281 C 291.515625 124.511719 290.886719 125.144531 290.109375 125.144531 C 289.332031 125.144531 288.703125 124.511719 288.703125 123.738281 C 288.703125 123.042969 289.207031 122.46875 289.867188 122.351562 L 289.617188 120.988281 L 289.617188 120.976562 L 288.304688 114.480469 L 287.097656 114.488281 L 287.089844 113.492188 L 289.117188 113.480469 L 289.609375 115.90625 L 298.695312 116.996094 L 297.542969 121.394531 L 290.707031 121.394531 Z M 290.875 122.328125 " fill-opacity="1" fill-rule="nonzero"/></g></svg>